<?xml version="1.0" encoding="UTF-8"?>
<svg id="Layer_2" data-name="Layer 2" xmlns="http://www.w3.org/2000/svg" viewBox="0 0 1000 1000">
  <g id="Layer_3" data-name="Layer 3">
    <path d="M795.34,0H204.66C91.63,0,0,91.63,0,204.66v590.68c0,113.03,91.63,204.66,204.66,204.66h590.68c113.03,0,204.66-91.63,204.66-204.66V204.66C1000,91.63,908.37,0,795.34,0ZM721.99,700.54h-16.62c-57.73,0-104.18-47.4-103.06-105.12,0-.44.02-.89.03-1.33h-1.65c-18.15,78.4-73.45,113.06-151.02,113.06-105.63,0-171.65-52.82-171.65-172.48v-241.8h125.44v226.95c0,56.94,31.36,83.35,85,83.35,67.67,0,108.11-44.56,108.11-133.69v-176.61h125.44v407.68Z"/>
  </g>
</svg>