<svg xmlns="http://www.w3.org/2000/svg" viewBox="0 0 1000 1000">
  <defs>
    <style>
      /* Default (Light Mode) settings */
      .background-shape {
        fill: #000000; /* Black background */
      }
      .logo-shape {
        fill: #ffffff; /* White logo */
      }

      /* Dark Mode settings - Inverts colors so it pops on dark tabs */
      @media (prefers-color-scheme: dark) {
        .background-shape {
          fill: #ffffff; /* White background */
        }
        .logo-shape {
          fill: #000000; /* Black logo */
        }
      }
    </style>
  </defs>

  <g>
    <path class="background-shape" d="M795.3,0H204.7C91.6,0,0,91.6,0,204.7v590.7c0,113,91.6,204.7,204.7,204.7h590.7c113,0,204.7-91.6,204.7-204.7V204.7C1000,91.6,908.4,0,795.3,0ZM722,700.5h0s-16.6,0-16.6,0c-57.7,0-104.2-47.4-103.1-105.1,0-.4,0-.9,0-1.3h-1.7c-18.2,78.4-73.5,113.1-151,113.1s-171.6-52.8-171.6-172.5v-241.8h125.4v227c0,56.9,31.4,83.3,85,83.3s108.1-44.6,108.1-133.7v-176.6h125.4v407.7Z"/>

    <path class="logo-shape" d="M722,292.9v407.7h0s-16.6,0-16.6,0c-57.7,0-104.2-47.4-103.1-105.1,0-.4,0-.9,0-1.3h-1.7c-18.2,78.4-73.5,113.1-151,113.1s-171.6-52.8-171.6-172.5v-241.8h125.4v227c0,56.9,31.4,83.3,85,83.3s108.1-44.6,108.1-133.7v-176.6h125.4Z"/>
  </g>
</svg>
